<?xml version="1.0" encoding="UTF-8" standalone="no"?><!-- Generator: Gravit.io --><svg xmlns="http://www.w3.org/2000/svg" xmlns:xlink="http://www.w3.org/1999/xlink" style="isolation:isolate" viewBox="692.147 265 394.853 512" width="394.853pt" height="512pt"><defs><clipPath id="_clipPath_1CV30gqF30YnwJQWuytKWgw932bHSZCz"><rect x="692.147" y="265" width="394.853" height="512"/></clipPath></defs><g clip-path="url(#_clipPath_1CV30gqF30YnwJQWuytKWgw932bHSZCz)"><rect x="692.147" y="265" width="394.853" height="512" style="fill:rgb(18,18,18)" fill-opacity="0"/><g><g><linearGradient id="_lgradient_3" x1="0.23769098879836292" y1="0.7520779816961798" x2="0.9797392953833453" y2="0.019534493031069133" gradientTransform="matrix(394.853,0,0,511.915,692.147,265)" gradientUnits="userSpaceOnUse"><stop offset="0%" stop-opacity="1" style="stop-color:rgb(208,94,208)"/><stop offset="99.56521739130434%" stop-opacity="1" style="stop-color:rgb(240,81,81)"/></linearGradient><path d=" M 1073.402 280.689 L 1073.402 662.989 L 1083.862 662.989 L 1083.862 678.678 L 1051.96 678.678 L 1051.96 746.666 L 1083.862 746.666 L 1083.862 762.355 L 870.485 762.355 L 870.485 776.915 L 828.646 751.174 L 786.807 776.915 L 786.807 762.355 L 741.83 762.355 C 714.436 762.355 692.147 740.065 692.147 712.672 C 692.147 711.438 692.21 710.224 692.293 709.011 L 692.147 709.011 L 692.147 314.683 C 692.148 287.29 714.438 265 741.831 265 L 1087 265 L 1087 280.689 L 1073.402 280.689 Z " fill="url(#_lgradient_3)"/><path d=" M 1036.271 746.667 L 1036.271 733.854 L 1036.271 718.165 L 1036.271 707.182 L 1036.271 691.493 L 1036.271 678.68 L 783.67 678.68 C 764.926 678.68 749.676 693.93 749.676 712.674 C 749.676 731.418 764.926 746.668 783.67 746.668 L 1036.271 746.668 L 1036.271 746.667 Z " fill="rgb(0,0,0)"/><path d=" M 820.279 626.381 L 1023.196 626.381 L 1023.196 334.557 L 1023.196 324.097 L 1023.196 316.775 L 820.279 316.775 L 820.279 325.143 L 820.279 335.603 L 820.279 626.381 Z " fill="rgb(18,18,18)"/><path d=" M 741.831 280.689 C 723.087 280.689 707.837 295.939 707.837 314.683 L 707.837 676.489 C 716.732 668.128 728.689 662.99 741.831 662.99 L 767.98 662.99 L 767.98 280.69 L 741.831 280.69 L 741.831 280.689 Z " fill="rgb(176,71,176)"/><g><path d=" M 692.294 709.012 C 692.257 709.542 692.227 710.074 692.203 710.605 C 692.228 710.073 692.258 709.541 692.297 709.012 L 692.294 709.012 Z " fill="rgb(0,255,255)"/><path d=" M 800.754 768.336 L 828.647 751.175 L 856.539 768.336 L 828.647 751.171 L 800.754 768.336 Z " fill="rgb(0,255,255)"/></g><path d=" M 741.831 746.667 L 747.485 746.667 C 739.124 737.772 733.986 725.815 733.986 712.673 C 733.986 699.531 739.124 687.574 747.485 678.679 L 741.831 678.679 C 723.087 678.679 707.837 693.929 707.837 712.673 C 707.837 731.417 723.088 746.667 741.831 746.667 Z " fill="rgb(176,71,176)"/><path d=" M 854.796 748.841 L 854.796 720.518 L 802.497 720.518 L 802.497 748.841 L 828.647 732.749 L 854.796 748.841 Z " fill="rgb(240,81,81)"/><linearGradient id="_lgradient_4" x1="-0.02063558357342199" y1="-0.015787684750879605" x2="0.9848044330533974" y2="0.9687449943154958" gradientTransform="matrix(394.852,0,0,511.918,692.148,265.082)" gradientUnits="userSpaceOnUse"><stop offset="0%" stop-opacity="1" style="stop-color:rgb(40,3,40)"/><stop offset="100%" stop-opacity="1" style="stop-color:rgb(176,70,176)"/></linearGradient><path d=" M 1073.402 642.152 L 1073.402 280.771 L 1087 280.771 L 1087 265.082 L 741.831 265.082 C 714.436 265.082 692.148 287.37 692.148 314.765 L 692.148 709.094 L 692.298 709.094 C 692.209 710.304 692.148 711.523 692.148 712.755 C 692.148 740.15 714.436 762.438 741.831 762.438 L 786.808 762.438 L 786.808 777 L 828.647 751.253 L 870.485 777 L 870.485 762.438 L 1083.862 762.438 L 1083.862 746.749 L 1051.96 746.749 L 1051.96 678.761 L 1083.862 678.761 L 1083.862 663.072 L 741.831 663.072 C 728.689 663.072 716.732 668.211 707.837 676.571 L 707.837 314.765 C 707.837 296.021 723.087 280.771 741.831 280.771 L 767.98 280.771 L 767.98 642.152 L 783.669 642.152 L 783.669 280.771 L 1057.712 280.771 L 1057.712 642.152 L 1073.402 642.152 Z  M 854.796 748.922 L 828.647 732.831 L 802.498 748.922 L 802.498 720.599 L 854.796 720.599 L 854.796 748.922 Z  M 783.67 678.761 L 1036.271 678.761 L 1036.271 691.574 L 917.554 691.574 L 917.554 707.263 L 1036.271 707.263 L 1036.271 718.246 L 896.634 718.246 L 896.634 733.935 L 1036.27 733.935 L 1036.27 746.748 L 870.485 746.748 L 870.485 704.91 L 786.808 704.91 L 786.808 746.749 L 783.67 746.749 C 764.926 746.749 749.676 731.499 749.676 712.755 C 749.676 694.011 764.926 678.761 783.67 678.761 Z  M 741.831 678.761 L 747.485 678.761 C 739.124 687.656 733.986 699.613 733.986 712.755 C 733.986 725.897 739.124 737.854 747.485 746.749 L 741.831 746.749 C 723.087 746.749 707.837 731.499 707.837 712.755 C 707.837 694.011 723.088 678.761 741.831 678.761 Z " fill="url(#_lgradient_4)"/><rect x="880.945" y="691.576" width="26.149" height="15.689" transform="matrix(1,0,0,1,0,0)" fill="rgb(0,0,0)"/><linearGradient id="_lgradient_5" x1="0.25" y1="0.8808961004273503" x2="0.9249999999999996" y2="0.10672075320512786" gradientTransform="matrix(104.597,0,0,15.689,869.439,566.845)" gradientUnits="userSpaceOnUse"><stop offset="0%" stop-opacity="1" style="stop-color:rgb(176,70,176)"/><stop offset="100%" stop-opacity="1" style="stop-color:rgb(219,48,48)"/></linearGradient><rect x="869.439" y="566.845" width="104.597" height="15.689" transform="matrix(1,0,0,1,0,0)" fill="url(#_lgradient_5)"/><linearGradient id="_lgradient_6" x1="0.25" y1="0.8808961004273503" x2="0.9249999999999996" y2="0.10672075320512786" gradientTransform="matrix(62.758,0,0,15.689,890.358,592.994)" gradientUnits="userSpaceOnUse"><stop offset="0%" stop-opacity="1" style="stop-color:rgb(176,70,176)"/><stop offset="100%" stop-opacity="1" style="stop-color:rgb(219,48,48)"/></linearGradient><rect x="890.358" y="592.994" width="62.758" height="15.689" transform="matrix(1,0,0,1,0,0)" fill="url(#_lgradient_6)"/><linearGradient id="_lgradient_7" x1="0.25" y1="0.8808961004273503" x2="0.9249999999999996" y2="0.10672075320512786" gradientTransform="matrix(94.137,0,0,15.689,892.45,540.696)" gradientUnits="userSpaceOnUse"><stop offset="0%" stop-opacity="1" style="stop-color:rgb(176,70,176)"/><stop offset="100%" stop-opacity="1" style="stop-color:rgb(219,48,48)"/></linearGradient><rect x="892.45" y="540.696" width="94.137" height="15.689" transform="matrix(1,0,0,1,0,0)" fill="url(#_lgradient_7)"/><linearGradient id="_lgradient_8" x1="0.25" y1="0.8808961004273503" x2="0.9249999999999996" y2="0.10672075320512786" gradientTransform="matrix(26.149,0,0,15.689,855.842,540.696)" gradientUnits="userSpaceOnUse"><stop offset="0%" stop-opacity="1" style="stop-color:rgb(176,70,176)"/><stop offset="100%" stop-opacity="1" style="stop-color:rgb(219,48,48)"/></linearGradient><rect x="855.842" y="540.696" width="26.149" height="15.689" transform="matrix(1,0,0,1,0,0)" fill="url(#_lgradient_8)"/><path d=" M 1038.886 301.167 L 804.589 301.167 L 804.589 335.684 L 820.279 335.684 L 820.279 316.857 L 1023.196 316.857 L 1023.196 334.638 L 1038.886 334.638 L 1038.886 301.167 Z " fill="rgb(18,18,18)"/><path d=" M 804.589 367.063 L 804.589 642.152 L 1038.886 642.152 L 1038.886 366.017 L 1023.196 366.017 L 1023.196 626.463 L 820.279 626.463 L 820.279 367.063 L 804.589 367.063 Z " fill="rgb(18,18,18)"/></g><g><g><linearGradient id="_lgradient_9" x1="0.25" y1="0.8808961004273503" x2="0.9249999999999996" y2="0.10672075320512786" gradientTransform="matrix(160,0,0,117.544,842,374.456)" gradientUnits="userSpaceOnUse"><stop offset="0%" stop-opacity="1" style="stop-color:rgb(176,70,176)"/><stop offset="100%" stop-opacity="1" style="stop-color:rgb(219,48,48)"/></linearGradient><path d=" M 986.823 376.292 C 984.383 373.843 980.382 373.843 977.942 376.292 L 904.073 450.143 L 866.031 411.841 C 863.591 409.383 859.617 409.383 857.16 411.841 L 843.83 425.161 C 841.39 427.592 841.39 431.593 843.83 434.042 L 899.597 490.177 C 902.037 492.608 906.011 492.608 908.478 490.177 L 1000.143 398.502 C 1002.619 396.053 1002.619 392.044 1000.143 389.586 L 986.823 376.292 Z " fill="url(#_lgradient_9)"/></g></g></g></g></svg>