<?xml version="1.0" encoding="UTF-8" standalone="no"?><!-- Generator: Gravit.io --><svg xmlns="http://www.w3.org/2000/svg" xmlns:xlink="http://www.w3.org/1999/xlink" style="isolation:isolate" viewBox="684 337 448 448" width="448pt" height="448pt"><defs><clipPath id="_clipPath_XjlP1KZqnq7qKTyRYNf7cEajlzL3IPhC"><rect x="684" y="337" width="448" height="448"/></clipPath></defs><g clip-path="url(#_clipPath_XjlP1KZqnq7qKTyRYNf7cEajlzL3IPhC)"><linearGradient id="_lgradient_1" x1="0.04464285714285726" y1="0.5089285714285715" x2="1.0044642857142858" y2="0.84375" gradientTransform="matrix(448,0,0,448,684,337)" gradientUnits="userSpaceOnUse"><stop offset="0%" stop-opacity="1" style="stop-color:rgb(255,255,255)"/><stop offset="100%" stop-opacity="1" style="stop-color:rgb(183,181,181)"/></linearGradient><path d=" M 828 785 L 732 785 C 705.5 785 684 763.5 684 737 L 684 385 C 684 358.5 705.5 337 732 337 L 828 337 C 854.5 337 876 358.5 876 385 L 876 737 C 876 763.5 854.5 785 828 785 Z  M 1132 737 L 1132 385 C 1132 358.5 1110.5 337 1084 337 L 988 337 C 961.5 337 940 358.5 940 385 L 940 737 C 940 763.5 961.5 785 988 785 L 1084 785 C 1110.5 785 1132 763.5 1132 737 Z " fill="url(#_lgradient_1)"/></g></svg>